<?xml version="1.0" ?><svg height="30px" version="1.1" viewBox="0 0 30 30" width="30px" xmlns="http://www.w3.org/2000/svg" xmlns:sketch="http://www.bohemiancoding.com/sketch/ns" xmlns:xlink="http://www.w3.org/1999/xlink"><title/><desc/><defs/><g fill="none" fill-rule="evenodd" id="content" stroke="none" stroke-width="1"><g fill="#000000" id="content_009-indent_decrease-paragraph-text-style-editor" transform="translate(-405.000000, -45.000000)"><g transform="translate(408.000000, 48.000000)"><path d="M0,6 L0,17 C0,17.4570769 0.562674368,17.6745304 0.87005357,17.3362445 L5.87005357,11.833499 C6.04337949,11.6427453 6.04330713,11.3514937 5.86988643,11.1608261 L0.869886435,5.66357166 C0.562421082,5.32552861 0,5.5430448 0,6 Z" id="content_008-indent_increase-paragraph-text-style-editor" transform="translate(3.000000, 11.500000) scale(-1, 1) translate(-3.000000, -11.500000) "/><path d="M23.4987259,0 L0.501274109,0 C0.224428063,0 0,0.214035034 0,0.504684448 L0,1.49531555 C0,1.77404508 0.222265363,2 0.501274109,2 L23.4987259,2 C23.7755719,2 24,1.78596497 24,1.49531555 L24,0.504684448 C24,0.225954924 23.7777346,0 23.4987259,0 Z" id="Shape"/><path d="M23.4987259,21 L0.501274109,21 C0.224428063,21 0,21.214035 0,21.5046844 L0,22.4953156 C0,22.7740451 0.222265363,23 0.501274109,23 L23.4987259,23 C23.7755719,23 24,22.785965 24,22.4953156 L24,21.5046844 C24,21.2259549 23.7777346,21 23.4987259,21 Z" id="Shape"/><path d="M23.4987259,7 L8.50127411,7 C8.22442806,7 8,7.21403503 8,7.50468445 L8,8.49531555 C8,8.77404508 8.22226536,9 8.50127411,9 L23.4987259,9 C23.7755719,9 24,8.78596497 24,8.49531555 L24,7.50468445 C24,7.22595492 23.7777346,7 23.4987259,7 Z" id="Shape"/><path d="M23.4987259,14 L8.50127411,14 C8.22442806,14 8,14.214035 8,14.5046844 L8,15.4953156 C8,15.7740451 8.22226536,16 8.50127411,16 L23.4987259,16 C23.7755719,16 24,15.785965 24,15.4953156 L24,14.5046844 C24,14.2259549 23.7777346,14 23.4987259,14 Z" id="Shape"/></g></g></g></svg>