<?xml version="1.0" ?><svg height="30px" version="1.1" viewBox="0 0 30 30" width="30px" xmlns="http://www.w3.org/2000/svg" xmlns:sketch="http://www.bohemiancoding.com/sketch/ns" xmlns:xlink="http://www.w3.org/1999/xlink"><title/><desc/><defs/><g fill="none" fill-rule="evenodd" id="content" stroke="none" stroke-width="1"><g fill="#000000" id="content_049-collapse-fullscreen-view-editor" transform="translate(-405.000000, -225.000000)"><path d="M417,243.707107 L417,246.5 C417,246.776142 417.223858,247 417.5,247 C417.776142,247 418,246.776142 418,246.5 L418,242.5 C418,242.223858 417.776142,242 417.5,242 L413.5,242 C413.223858,242 413,242.223858 413,242.5 C413,242.776142 413.223858,243 413.5,243 L416.292893,243 L412.146447,247.146447 C411.951184,247.341709 411.951184,247.658291 412.146447,247.853553 C412.341709,248.048816 412.658291,248.048816 412.853553,247.853553 L417,243.707107 Z M423,236.292893 L423,233.5 C423,233.223858 422.776142,233 422.5,233 C422.223858,233 422,233.223858 422,233.5 L422,237.5 C422,237.776142 422.223858,238 422.5,238 L426.5,238 C426.776142,238 427,237.776142 427,237.5 C427,237.223858 426.776142,237 426.5,237 L423.707107,237 L427.853553,232.853553 C428.048816,232.658291 428.048816,232.341709 427.853553,232.146447 C427.658291,231.951184 427.341709,231.951184 427.146447,232.146447 L423,236.292893 Z M408,228.5 L408,251.5 C408,251.776142 408.223858,252 408.5,252 L431.5,252 C431.776142,252 432,251.776142 432,251.5 L432,228.5 C432,228.223858 431.776142,228 431.5,228 L408.5,228 C408.223858,228 408,228.223858 408,228.5 Z M410,230 L430,230 L430,250 L410,250 L410,230 Z"/></g></g></svg>