<?xml version="1.0" ?><svg height="30px" version="1.1" viewBox="0 0 30 30" width="30px" xmlns="http://www.w3.org/2000/svg" xmlns:sketch="http://www.bohemiancoding.com/sketch/ns" xmlns:xlink="http://www.w3.org/1999/xlink"><title/><desc/><defs/><g fill="none" fill-rule="evenodd" id="content" stroke="none" stroke-width="1"><g fill="#000000" id="content_048-expand-fullscreen-view-editor" transform="translate(-360.000000, -225.000000)"><path d="M368,246.292893 L368,243.5 C368,243.223858 367.776142,243 367.5,243 C367.223858,243 367,243.223858 367,243.5 L367,247.5 C367,247.776142 367.223858,248 367.5,248 L371.5,248 C371.776142,248 372,247.776142 372,247.5 C372,247.223858 371.776142,247 371.5,247 L368.707107,247 L372.853553,242.853553 C373.048816,242.658291 373.048816,242.341709 372.853553,242.146447 C372.658291,241.951184 372.341709,241.951184 372.146447,242.146447 L368,246.292893 Z M382,233.707107 L382,236.5 C382,236.776142 382.223858,237 382.5,237 C382.776142,237 383,236.776142 383,236.5 L383,232.5 C383,232.223858 382.776142,232 382.5,232 L378.5,232 C378.223858,232 378,232.223858 378,232.5 C378,232.776142 378.223858,233 378.5,233 L381.292893,233 L377.146447,237.146447 C376.951184,237.341709 376.951184,237.658291 377.146447,237.853553 C377.341709,238.048816 377.658291,238.048816 377.853553,237.853553 L382,233.707107 Z M363,228.5 L363,251.5 C363,251.776142 363.223858,252 363.5,252 L386.5,252 C386.776142,252 387,251.776142 387,251.5 L387,228.5 C387,228.223858 386.776142,228 386.5,228 L363.5,228 C363.223858,228 363,228.223858 363,228.5 Z M365,230 L385,230 L385,250 L365,250 L365,230 Z"/></g></g></svg>