<?xml version="1.0" ?><svg height="30px" version="1.1" viewBox="0 0 30 30" width="30px" xmlns="http://www.w3.org/2000/svg" xmlns:sketch="http://www.bohemiancoding.com/sketch/ns" xmlns:xlink="http://www.w3.org/1999/xlink"><title/><desc/><defs/><g fill="none" fill-rule="evenodd" id="content" stroke="none" stroke-width="1"><g fill="#000000" id="content_007-list_order-text-number-item-editor" transform="translate(-315.000000, -45.000000)"><g transform="translate(318.000000, 51.000000)"><path d="M2.5,3 C2.77614237,3 3,3.22385763 3,3.5 C3,3.77614237 2.77614237,4 2.5,4 L0.5,4 C0.223857625,4 0,3.77614237 0,3.5 C0,3.22385763 0.223857625,3 0.5,3 L1,3 L1,1 L0.5,1 C0.223857625,1 0,0.776142375 0,0.5 C0,0.223857625 0.223857625,0 0.5,0 L1.5,0 C1.77999878,0 2,0.220000029 2,0.5 L2,3 L2.5,3 Z M2,8 L2,8.20550537 L0.276393202,9.0527864 C0.106912689,9.13752666 -0.000104011752,9.31078971 7.54371733e-08,9.50027466 L0.000549391843,10.5002747 C0.000701274589,10.7767688 0.225231184,11.0006485 0.501724563,10.9999986 L2.50117525,10.9952989 C2.77731686,10.9946498 3.00064769,10.7702667 2.99999862,10.494125 C2.99934955,10.2179834 2.77496637,9.9946526 2.49882475,9.99530167 L0.99999994,10 L0.99999994,9.81030273 L2.7236068,8.9472136 C2.89299881,8.86251759 3,8.68938603 3,8.5 L3,7.5 C3,7.22385763 2.77614237,7 2.5,7 L0.5,7 C0.223857625,7 4.4797499e-14,7.22385763 4.4797499e-14,7.5 C4.4797499e-14,7.77614237 0.223857625,8 0.5,8 L2,8 Z M2.00000002,17.0041513 L0.501037619,17.0000011 C0.224895839,16.999428 0.000574148156,17.2228206 1.10002795e-06,17.4989624 C-0.0005719481,17.7751042 0.222820648,17.9994259 0.498962428,17.9999989 L2.49896243,18.0041493 C2.7755095,18.0047232 3.00000002,17.7806981 3.00000002,17.5041504 L3.00000002,14.5 C3.00000002,14.2238576 2.7761424,14 2.50000002,14 L0.500000023,14 C0.223857649,14 2.3422519e-08,14.2238576 2.3422519e-08,14.5 C2.3422519e-08,14.7761424 0.223857649,15 0.500000023,15 L2.00000002,15 L2.00000002,15.5020752 L0.500000023,15.5020752 C0.223857649,15.5020752 2.3422519e-08,15.7259328 2.3422519e-08,16.0020752 C2.3422519e-08,16.2782176 0.223857649,16.5020752 0.500000023,16.5020752 L2.00000002,16.5020752 L2.00000002,17.0041513 Z"/><path d="M23.4987259,1 L5.50127411,1 C5.22442806,1 5,1.21403503 5,1.50468445 L5,2.49531555 C5,2.77404508 5.22226536,3 5.50127411,3 L23.4987259,3 C23.7755719,3 24,2.78596497 24,2.49531555 L24,1.50468445 C24,1.22595492 23.7777346,1 23.4987259,1 Z" id="Shape"/><path d="M23.4987259,8 L5.50127411,8 C5.22442806,8 5,8.21403503 5,8.50468445 L5,9.49531555 C5,9.77404508 5.22226536,10 5.50127411,10 L23.4987259,10 C23.7755719,10 24,9.78596497 24,9.49531555 L24,8.50468445 C24,8.22595492 23.7777346,8 23.4987259,8 Z" id="Shape"/><path d="M23.4987259,15 L5.50127411,15 C5.22442806,15 5,15.214035 5,15.5046844 L5,16.4953156 C5,16.7740451 5.22226536,17 5.50127411,17 L23.4987259,17 C23.7755719,17 24,16.785965 24,16.4953156 L24,15.5046844 C24,15.2259549 23.7777346,15 23.4987259,15 Z" id="Shape"/></g></g></g></svg>