<?xml version="1.0" ?><svg height="30px" version="1.1" viewBox="0 0 30 30" width="30px" xmlns="http://www.w3.org/2000/svg" xmlns:sketch="http://www.bohemiancoding.com/sketch/ns" xmlns:xlink="http://www.w3.org/1999/xlink"><title/><desc/><defs/><g fill="none" fill-rule="evenodd" id="content" stroke="none" stroke-width="1"><g fill="#000000" id="content_006-list_unorder-text-bullet-point-editor" transform="translate(-270.000000, -45.000000)"><g transform="translate(273.000000, 51.000000)"><circle cx="1.5" cy="16" id="Oval-18" r="1.5"/><circle cx="1.5" cy="9" id="Oval-18" r="1.5"/><circle cx="1.5" cy="2" id="Oval-18" r="1.5"/><path d="M23.4987259,15 L5.50127411,15 C5.22442806,15 5,15.214035 5,15.5046844 L5,16.4953156 C5,16.7740451 5.22226536,17 5.50127411,17 L23.4987259,17 C23.7755719,17 24,16.785965 24,16.4953156 L24,15.5046844 C24,15.2259549 23.7777346,15 23.4987259,15 Z" id="Shape"/><path d="M23.4987259,8 L5.50127411,8 C5.22442806,8 5,8.21403503 5,8.50468445 L5,9.49531555 C5,9.77404508 5.22226536,10 5.50127411,10 L23.4987259,10 C23.7755719,10 24,9.78596497 24,9.49531555 L24,8.50468445 C24,8.22595492 23.7777346,8 23.4987259,8 Z" id="Shape"/><path d="M23.4987259,1 L5.50127411,1 C5.22442806,1 5,1.21403503 5,1.50468445 L5,2.49531555 C5,2.77404508 5.22226536,3 5.50127411,3 L23.4987259,3 C23.7755719,3 24,2.78596497 24,2.49531555 L24,1.50468445 C24,1.22595492 23.7777346,1 23.4987259,1 Z" id="Shape"/></g></g></g></svg>