<?xml version="1.0" ?><svg height="30px" version="1.1" viewBox="0 0 30 30" width="30px" xmlns="http://www.w3.org/2000/svg" xmlns:sketch="http://www.bohemiancoding.com/sketch/ns" xmlns:xlink="http://www.w3.org/1999/xlink"><title/><desc/><defs/><g fill="none" fill-rule="evenodd" id="content" stroke="none" stroke-width="1"><g fill="#000000" id="content_046-undo-edit-arrow-reload-editor" transform="translate(-270.000000, -225.000000)"><path d="M294.338197,232.08445 L293.211299,233.03003 C292.367475,233.738083 292.56792,234.43875 293.661734,234.592724 L297.359472,235.113249 C297.90529,235.190083 298.357756,234.807488 298.376764,234.25964 L298.506253,230.52769 C298.544632,229.421572 297.890563,229.103661 297.045517,229.812739 L295.841914,230.822682 C291.04939,225.111174 282.53419,224.36619 276.822682,229.158714 C271.111174,233.951239 270.36619,242.466439 275.158714,248.177947 C279.951239,253.889455 288.466439,254.634439 294.177947,249.841914 C296.166434,248.173375 297.614283,245.998574 298.382597,243.542428 C298.544427,243.025092 298.256231,242.474519 297.738895,242.312689 C297.221558,242.150859 296.670985,242.439055 296.509155,242.956392 C295.852694,245.054966 294.616839,246.911174 292.916179,248.338197 C288.035151,252.433866 280.7581,251.797207 276.662431,246.916179 C272.566762,242.035151 273.203422,234.7581 278.08445,230.662431 C282.965478,226.566762 290.242529,227.203422 294.338197,232.08445 Z" transform="translate(285.253930, 239.500314) scale(-1, 1) translate(-285.253930, -239.500314) "/></g></g></svg>